<?xml version="1.0" encoding="UTF-8"?>
<svg xmlns="http://www.w3.org/2000/svg" viewBox="0 0 120 120" width="120" height="120">
  <defs>
    <style>
      .monogram-main {
        fill: #373432;
      }
      .prairie-accent {
        fill: #C27254;
      }
      .sand-fill {
        fill: #E8DAC3;
      }
      @keyframes lineSlide {
        0% { transform: translateX(-100%); }
        100% { transform: translateX(0); }
      }
      .slide-in {
        animation: lineSlide 0.8s ease-out forwards;
      }
      .slide-in-delay-1 { animation-delay: 0.1s; }
      .slide-in-delay-2 { animation-delay: 0.2s; }
      .slide-in-delay-3 { animation-delay: 0.3s; }

      @keyframes pulseGlow {
        0%, 100% { opacity: 1; }
        50% { opacity: 0.7; }
      }
      svg:hover .prairie-accent {
        animation: pulseGlow 1.5s ease-in-out infinite;
      }
    </style>
    <clipPath id="lineClip">
      <rect x="0" y="0" width="120" height="120"/>
    </clipPath>
  </defs>

  <!-- Background square -->
  <rect x="5" y="5" width="110" height="110" fill="#E8DAC3" rx="2"/>

  <!-- Stylized U shape with geometric angles -->
  <path class="monogram-main" d="
    M25,20
    L25,70
    Q25,95 50,95
    L70,95
    Q95,95 95,70
    L95,20
    L80,20
    L80,70
    Q80,80 70,80
    L50,80
    Q40,80 40,70
    L40,20
    Z
  "/>

  <!-- Prairie horizontal accent lines through the U -->
  <g clip-path="url(#lineClip)">
    <rect class="prairie-accent slide-in" x="15" y="35" width="90" height="4" rx="1"/>
    <rect class="prairie-accent slide-in slide-in-delay-1" x="15" y="45" width="90" height="3" rx="1" opacity="0.8"/>
    <rect class="prairie-accent slide-in slide-in-delay-2" x="15" y="53" width="90" height="2" rx="1" opacity="0.6"/>
  </g>

  <!-- Top accent bar -->
  <rect class="prairie-accent" x="20" y="12" width="80" height="4" rx="1"/>

  <!-- Bottom decorative element -->
  <rect class="prairie-accent" x="35" y="102" width="50" height="3" rx="1"/>
  <rect class="prairie-accent" x="45" y="107" width="30" height="2" rx="1" opacity="0.7"/>
</svg>